<?xml version="1.0" standalone="no"?>
<!DOCTYPE svg PUBLIC "-//W3C//DTD SVG 20010904//EN"
 "http://www.w3.org/TR/2001/REC-SVG-20010904/DTD/svg10.dtd">
<svg version="1.0" xmlns="http://www.w3.org/2000/svg"
 width="320.000000pt" height="320.000000pt" viewBox="0 0 320.000000 320.000000"
 preserveAspectRatio="xMidYMid meet">
<metadata>
Created by potrace 1.14, written by Peter Selinger 2001-2017
</metadata>
<g transform="translate(0.000000,320.000000) scale(0.100000,-0.100000)"
fill="#000000" stroke="none">
<path d="M1375 2836 c-337 -139 -577 -336 -693 -569 -86 -172 -124 -369 -124
-637 0 -237 42 -495 101 -621 l20 -44 -7 100 c-4 55 -7 197 -6 315 1 196 3
224 27 322 68 277 202 516 394 706 47 45 89 82 94 82 5 0 -18 -35 -52 -77
-125 -157 -226 -325 -294 -488 -23 -55 -45 -112 -49 -127 -6 -26 -4 -28 22
-28 48 0 144 29 222 67 102 49 201 149 257 258 54 104 85 214 129 450 19 104
43 218 53 252 26 87 24 88 -94 39z"/>
<path d="M1600 2624 l0 -245 58 32 c31 18 98 56 147 85 50 29 93 50 98 47 4
-2 7 -294 7 -649 0 -520 2 -644 13 -644 7 0 34 -28 60 -62 l47 -61 -2 754 -3
754 -200 117 c-110 64 -206 117 -212 117 -10 1 -13 -54 -13 -245z"/>
<path d="M1766 2831 c33 -21 78 -44 100 -51 288 -93 559 -392 667 -735 57
-183 83 -400 66 -573 -25 -276 -90 -472 -227 -688 -33 -50 -35 -84 -6 -84 14
0 73 83 120 170 128 236 191 556 166 837 -33 362 -148 631 -369 864 -136 142
-290 234 -471 279 -109 28 -115 25 -46 -19z"/>
<path d="M1600 2275 c-107 -62 -201 -118 -208 -124 -9 -9 -12 -109 -10 -454
l3 -442 213 -3 212 -2 0 570 c0 313 -3 570 -7 569 -5 0 -96 -51 -203 -114z
m-22 -237 l-3 -53 -50 0 -50 0 -3 53 -3 52 56 0 56 0 -3 -52z m150 0 l-3 -53
-50 0 -50 0 -3 53 -3 52 56 0 56 0 -3 -52z m-148 -148 l0 -50 -55 0 -55 0 0
50 0 50 55 0 55 0 0 -50z m150 0 l0 -50 -55 0 -55 0 0 50 0 50 55 0 55 0 0
-50z m-150 -140 l0 -50 -55 0 -55 0 0 50 0 50 55 0 55 0 0 -50z m148 -2 l-3
-53 -50 0 -50 0 -3 53 -3 52 56 0 56 0 -3 -52z m-150 -145 l3 -53 -55 0 -56 0
0 48 c0 27 3 52 7 56 4 4 28 6 53 4 l45 -3 3 -52z m150 0 l3 -53 -55 0 -56 0
0 48 c0 27 3 52 7 56 4 4 28 6 53 4 l45 -3 3 -52z m-148 -143 l0 -50 -55 0
-55 0 0 50 0 50 55 0 55 0 0 -50z m150 0 l0 -50 -55 0 -55 0 0 50 0 50 55 0
55 0 0 -50z"/>
<path d="M2112 1619 l3 -604 80 -107 c44 -59 83 -107 88 -108 4 0 7 294 6 653
l0 652 -74 52 c-40 29 -80 56 -89 59 -15 6 -16 -46 -14 -597z"/>
<path d="M1219 1812 c-109 -61 -99 -23 -99 -366 1 -286 2 -300 18 -277 47 66
69 81 116 81 l46 0 0 300 c0 165 -3 300 -7 300 -5 -1 -38 -18 -74 -38z"/>
<path d="M825 1588 c-7 -21 -20 -38 -39 -47 l-29 -14 30 -12 c31 -13 42 -31
44 -68 0 -17 3 -14 13 12 14 38 40 61 70 61 16 0 12 5 -14 18 -20 9 -42 31
-50 50 l-16 32 -9 -32z"/>
<path d="M985 1417 c-4 -10 -19 -24 -34 -32 -18 -10 -21 -14 -9 -15 9 0 24
-10 32 -22 l16 -22 16 22 c8 12 25 22 37 23 20 1 20 1 -4 10 -15 5 -31 20 -37
32 -9 20 -11 20 -17 4z"/>
<path d="M861 1289 c-9 -16 -10 -24 0 -35 11 -13 14 -13 27 0 12 12 13 17 0
34 l-14 21 -13 -20z"/>
<path d="M1187 1130 c-20 -27 -37 -52 -37 -55 0 -3 153 -5 339 -5 l339 0 109
-142 c59 -79 151 -200 203 -270 l95 -127 82 0 83 -1 -113 148 c-62 81 -171
224 -242 317 -71 94 -133 173 -139 177 -6 4 -162 8 -346 8 l-336 0 -37 -50z"/>
<path d="M830 1091 c0 -6 5 -13 10 -16 6 -3 10 -41 10 -84 l0 -78 -127 -168
c-71 -92 -136 -178 -146 -191 l-19 -24 344 0 343 0 125 167 c69 92 130 168
135 169 6 2 67 -72 136 -164 l126 -167 82 -3 82 -3 -169 223 -169 223 -287 3
-286 2 0 -75 c0 -71 -1 -75 -24 -81 -14 -3 -30 -3 -35 1 -7 4 -11 57 -11 141
l0 134 -60 0 c-33 0 -60 -4 -60 -9z"/>
<path d="M580 426 c0 -25 -5 -35 -20 -39 -24 -6 -27 -27 -4 -27 8 0 24 5 35
10 13 7 19 7 19 0 0 -16 37 -12 54 6 21 20 22 84 1 84 -10 0 -15 -11 -15 -35
0 -28 -4 -35 -20 -35 -16 0 -20 7 -20 35 0 24 -5 35 -15 35 -10 0 -15 -10 -15
-34z"/>
<path d="M690 410 l0 -50 35 0 c24 0 35 5 35 15 0 8 -9 15 -20 15 -16 0 -20 7
-20 35 0 24 -5 35 -15 35 -11 0 -15 -12 -15 -50z"/>
<path d="M816 441 c-34 -37 8 -90 60 -77 32 9 21 26 -17 26 -22 0 -29 5 -29
19 0 20 25 35 41 25 5 -3 14 -2 20 2 8 4 7 9 -2 15 -23 15 -55 10 -73 -10z"/>
<path d="M910 410 l0 -50 35 0 c24 0 35 5 35 15 0 9 -9 15 -25 15 -22 0 -25 4
-25 35 0 19 -4 35 -10 35 -5 0 -10 -22 -10 -50z"/>
<path d="M990 409 l0 -50 33 3 c36 3 40 20 5 30 l-23 6 23 1 c12 1 22 5 22 10
0 5 -10 12 -22 16 -22 8 -22 8 5 12 39 6 33 23 -8 23 l-35 0 0 -51z"/>
<path d="M1089 418 c-22 -46 -21 -74 2 -51 8 8 20 8 37 2 13 -5 27 -8 29 -5 2
2 -7 26 -20 52 l-25 49 -23 -47z"/>
<path d="M1170 410 c0 -38 4 -50 15 -50 10 0 15 10 15 27 l0 27 30 -29 30 -29
0 52 c0 29 -4 52 -10 52 -5 0 -10 -12 -10 -27 l0 -27 -28 27 c-15 15 -31 27
-35 27 -4 0 -7 -22 -7 -50z"/>
<path d="M1280 410 c0 -27 5 -50 10 -50 6 0 10 23 10 50 0 28 -4 50 -10 50 -5
0 -10 -22 -10 -50z"/>
<path d="M1310 410 c0 -38 4 -50 15 -50 10 0 15 10 15 27 l0 27 30 -29 30 -29
0 52 c0 29 -4 52 -10 52 -5 0 -10 -12 -10 -27 l0 -27 -28 27 c-15 15 -31 27
-35 27 -4 0 -7 -22 -7 -50z"/>
<path d="M1425 436 c-13 -19 -14 -29 -5 -45 22 -42 100 -34 100 9 0 15 -7 20
-25 20 -26 0 -34 -15 -12 -23 6 -3 2 -6 -11 -6 -22 -1 -41 23 -28 36 4 4 19 7
34 8 38 0 34 19 -5 23 -25 2 -35 -2 -48 -22z"/>
<path d="M1573 444 c-4 -11 1 -23 16 -36 23 -18 23 -18 2 -18 -12 0 -21 -4
-21 -9 0 -13 34 -23 54 -15 23 9 20 41 -4 49 -27 9 -26 25 1 18 16 -4 20 -2
17 8 -7 21 -57 24 -65 3z"/>
<path d="M1650 410 l0 -50 35 0 c40 0 51 29 13 31 -17 1 -19 2 -5 6 21 5 23
23 2 23 -8 0 -15 5 -15 10 0 6 9 10 20 10 11 0 20 5 20 10 0 6 -16 10 -35 10
l-35 0 0 -50z"/>
<path d="M1730 410 c0 -27 5 -50 10 -50 6 0 10 7 10 15 0 8 4 15 9 15 5 0 11
-7 15 -15 3 -8 12 -15 21 -15 12 0 13 4 6 18 -6 11 -6 24 1 35 13 25 -7 47
-43 47 -28 0 -29 -2 -29 -50z m48 19 c-2 -6 -8 -10 -13 -10 -5 0 -11 4 -13 10
-2 6 4 11 13 11 9 0 15 -5 13 -11z"/>
<path d="M1810 456 c0 -2 9 -26 21 -53 l21 -48 23 45 c28 53 30 60 11 60 -8 0
-17 -12 -21 -27 l-7 -28 -14 28 c-12 22 -34 37 -34 23z"/>
<path d="M1910 410 c0 -38 4 -50 15 -50 11 0 15 12 15 50 0 38 -4 50 -15 50
-11 0 -15 -12 -15 -50z"/>
<path d="M1968 449 c-40 -23 -5 -94 43 -87 35 5 36 28 1 28 -17 0 -32 6 -35
14 -8 21 18 39 44 31 15 -5 20 -3 17 6 -6 17 -47 22 -70 8z"/>
<path d="M2050 410 l0 -50 35 0 c40 0 51 29 13 31 -17 1 -19 2 -5 6 21 5 23
23 2 23 -8 0 -15 5 -15 10 0 6 9 10 20 10 11 0 20 5 20 10 0 6 -16 10 -35 10
l-35 0 0 -50z"/>
<path d="M2133 444 c-4 -11 1 -23 16 -36 23 -18 23 -18 2 -18 -12 0 -21 -4
-21 -9 0 -13 34 -23 54 -15 23 9 20 45 -4 51 -11 3 -20 9 -20 13 0 5 10 6 21
3 16 -4 20 -2 17 8 -7 21 -57 24 -65 3z"/>
<path d="M2250 410 c0 -27 5 -50 10 -50 6 0 10 23 10 50 0 28 -4 50 -10 50 -5
0 -10 -22 -10 -50z"/>
<path d="M2290 411 c0 -28 5 -51 10 -51 6 0 10 12 10 26 l0 26 35 -26 35 -27
0 50 c0 38 -4 51 -14 51 -8 0 -16 -9 -18 -21 l-3 -21 -27 22 -28 21 0 -50z"/>
<path d="M2402 448 c-6 -6 -12 -24 -12 -40 0 -33 30 -53 66 -44 30 8 22 26
-11 26 -13 0 -27 5 -30 10 -9 15 14 40 33 37 10 -1 19 3 22 8 7 15 -53 18 -68
3z"/>
</g>
</svg>
